<svg id="Group_4483" data-name="Group 4483" xmlns="http://www.w3.org/2000/svg" viewBox="0 0 163.877 73.917" width="100" height="45">
  <style>
    .cls-1 {
      fill: white; /* Change fill color to white */
    }
  </style>
  <path id="Path_8344" data-name="Path 8344" class="cls-1" d="M13.213,103.516h2.808q6.8,0,6.8-9.016,0-8.44-6.8-8.444H13.213ZM.734,125.109V82.086H19.291q15.8,0,15.794,12.64,0,12.766-17.558,12.76H13.213v17.622H.734Z" transform="translate(-0.588 -65.741)"/>
  <path id="Path_8345" data-name="Path 8345" class="cls-1" d="M166.057,111.469h10.565l-5.078-19.076ZM180.9,82.086l11.974,43.023H180.333l-2.55-9.326H164.831l-2.744,9.326H157.2L169.94,82.086Z" transform="translate(-125.9 -65.741)"/>
  <path id="Path_8346" data-name="Path 8346" class="cls-1" d="M355.541,82.086l-10.5,27.132v15.89H332.56v-15.89l-11.6-27.132h12.954l8.757,20.742,7.886-20.742Z" transform="translate(-257.052 -65.741)"/>
  <path id="Path_8347" data-name="Path 8347" class="cls-1" d="M543.147,11.911a29.711,29.711,0,0,1,0,59.423q-1.086,0-2.153-.077l3.281-3.078a26.582,26.582,0,1,0-17.181-5.371l-.039,3.794a29.714,29.714,0,0,1,16.092-54.691" transform="translate(-411.2 -9.539)"/>
  <path id="Path_8348" data-name="Path 8348" class="cls-1" d="M589.437,91.642l-.016-43.284L567.772,68.38l6.312-1.59.111,39.4Z" transform="translate(-454.717 -38.729)"/>
  <path id="Path_8349" data-name="Path 8349" class="cls-1" d="M783.81,4.562V0h.794l1.446,3.763h.025L787.535,0h.792V4.562h-.53V1.623q0-.506.044-1.1h-.025l-1.562,4.038h-.428L784.277.518h-.025q.043.481.044,1.143v2.9h-.485Zm-4.1-4.089V0h3.418V.473h-1.444V4.562h-.53V.473Z" transform="translate(-624.451)"/>
  <path id="Path_8350" data-name="Path 8350" class="cls-1" d="M112,339.21l.611-.78,1.435-1.561h1.58l-2.037,2.227L115.754,342h-1.616l-1.478-2.081-.6.483V342h-1.4v-7.146h1.4v3.187l-.074,1.166H112Zm-2.752-2.435a2.326,2.326,0,0,1,.473.041l-.1,1.313a1.646,1.646,0,0,0-.414-.045,1.479,1.479,0,0,0-1.044.345,1.244,1.244,0,0,0-.375.964V342h-1.4v-5.134h1.061l.205.865h.069a1.953,1.953,0,0,1,.646-.7A1.586,1.586,0,0,1,109.252,336.775Zm-4.023,2.655a2.761,2.761,0,0,1-.66,1.96,2.4,2.4,0,0,1-1.841.707,2.576,2.576,0,0,1-1.3-.324,2.144,2.144,0,0,1-.867-.929,3.124,3.124,0,0,1-.3-1.414,2.746,2.746,0,0,1,.655-1.957,2.413,2.413,0,0,1,1.846-.7,2.591,2.591,0,0,1,1.3.321,2.146,2.146,0,0,1,.867.923A3.1,3.1,0,0,1,105.23,339.43Zm-3.546,0a2.161,2.161,0,0,0,.249,1.152.9.9,0,0,0,.815.39.881.881,0,0,0,.805-.387,2.2,2.2,0,0,0,.245-1.155,2.111,2.111,0,0,0-.247-1.142,1.052,1.052,0,0,0-1.619,0A2.105,2.105,0,0,0,101.683,339.427ZM96.738,342l-.395-1.8-.531-2.268h-.033L94.842,342H93.336l-1.459-5.134h1.395l.592,2.272q.143.611.29,1.686h.027a9.309,9.309,0,0,1,.161-1.106l.074-.39.633-2.462h1.544l.6,2.462c.013.067.031.166.058.3s.052.271.075.42.047.295.067.437a3.364,3.364,0,0,1,.034.342h.027q.042-.332.147-.907c.07-.384.121-.644.152-.779l.616-2.272H99.74L98.263,342H96.738ZM90.6,340.978a3.012,3.012,0,0,0,.882-.161v1.045a3.133,3.133,0,0,1-1.285.235,1.571,1.571,0,0,1-1.224-.425,1.851,1.851,0,0,1-.384-1.274v-2.476H87.92v-.594l.771-.469.4-1.083h.895v1.092h1.437v1.053H89.99V340.4a.546.546,0,0,0,.168.44A.655.655,0,0,0,90.6,340.978ZM85.207,342.1a2.651,2.651,0,0,1-1.938-.685,2.588,2.588,0,0,1-.7-1.937,2.852,2.852,0,0,1,.644-1.995A2.3,2.3,0,0,1,85,336.775a2.264,2.264,0,0,1,1.694.619,2.342,2.342,0,0,1,.607,1.711v.679H83.989a1.36,1.36,0,0,0,.353.934,1.247,1.247,0,0,0,.929.335,3.854,3.854,0,0,0,.878-.1,4.428,4.428,0,0,0,.863-.307v1.084a4.369,4.369,0,0,1-1.2.2A2.667,2.667,0,0,1,85.207,342.1Zm-3.6-4.243-.6-2.379q-.155-.617-.267-1.055t-.227-1.013h-.025c.083.444.136.858.159,1.247a3.045,3.045,0,0,1-.137,1.006,2.5,2.5,0,0,1-.438.8,1.694,1.694,0,0,1-.652.448,2.077,2.077,0,0,1,.883.51Zm-1.344-2.544q.12-.378.286-.936t.292-1.044h.025c-.049.358-.086.73-.111,1.115a7.885,7.885,0,0,1,.069,1.061,7.053,7.053,0,0,1-.1,1.116q-.041.366-.115.956Zm-3.574,4.243a2.657,2.657,0,0,1-1.938-.685,2.6,2.6,0,0,1-.7-1.937,2.852,2.852,0,0,1,.644-1.995,2.3,2.3,0,0,1,1.652-.685,2.264,2.264,0,0,1,1.694.619,2.342,2.342,0,0,1,.607,1.711v.679H77.389a1.36,1.36,0,0,0,.353.934,1.249,1.249,0,0,0,.929.335,3.854,3.854,0,0,0,.878-.1,4.428,4.428,0,0,0,.863-.307v1.084a4.369,4.369,0,0,1-1.2.2A2.667,2.667,0,0,1,77.233,337.857Zm-3.6-4.243-.6-2.379q-.155-.617-.267-1.055t-.227-1.013h-.025c.083.444.136.858.159,1.247a3.045,3.045,0,0,1-.137,1.006,2.5,2.5,0,0,1-.438.8,1.692,1.692,0,0,1-.652.448,2.08,2.08,0,0,1,.883.51Zm-1.344-2.544q.12-.378.286-.936t.292-1.044h.025c-.049.358-.086.73-.111,1.115a7.885,7.885,0,0,1,.069,1.061,7.053,7.053,0,0,1-.1,1.116q-.041.366-.115.956Zm-6.2,4.4a1.174,1.174,0,0,0,.368.911,1.377,1.377,0,0,0,.908.307,1.278,1.278,0,0,0,1.011-.419,1.493,1.493,0,0,0,.369-1.064,1.54,1.54,0,0,0-.372-1.078,1.268,1.268,0,0,0-1.016-.42,1.373,1.373,0,0,0-.9.3,1.159,1.159,0,0,0-.368.879Zm-2.489-4.152H67.44v-.509a1.2,1.2,0,0,0-.522-.93,1.243,1.243,0,0,0-.861-.316,1.18,1.18,0,0,0-.868.338,1.186,1.186,0,0,0-.348.859,1.182,1.182,0,0,0,.348.857,1.217,1.217,0,0,0,.861.339,1.223,1.223,0,0,0,.868-.338,1.2,1.2,0,0,0,.349-.861v-.081h1.364v.082a1.225,1.225,0,0,0,.348.861,1.243,1.243,0,0,0,.868.338,1.218,1.218,0,0,0,.861-.339,1.193,1.193,0,0,0,.348-.857,1.186,1.186,0,0,0-.348-.859,1.234,1.234,0,0,0-.861-.338,1.232,1.232,0,0,0-.868.316,1.2,1.2,0,0,0-.348.93Zm-2.349,4.152a1.176,1.176,0,0,0,.367.911,1.376,1.376,0,0,0,.908.307,1.279,1.279,0,0,0,1.011-.419,1.494,1.494,0,0,0,.369-1.064,1.54,1.54,0,0,0-.372-1.078,1.267,1.267,0,0,0-1.016-.42,1.372,1.372,0,0,0-.9.3,1.16,1.16,0,0,0-.368.879Zm-2.489-4.152H62.952v-.509a1.2,1.2,0,0,0-.522-.93,1.244,1.244,0,0,0-.861-.316,1.18,1.18,0,0,0-.868.338,1.186,1.186,0,0,0-.348.859,1.182,1.182,0,0,0,.348.857,1.217,1.217,0,0,0,.861.339,1.223,1.223,0,0,0,.868-.338,1.2,1.2,0,0,0,.349-.861v-.081h1.364v.082a1.225,1.225,0,0,0,.348.861,1.244,1.244,0,0,0,.868.338,1.218,1.218,0,0,0,.861-.339,1.193,1.193,0,0,0,.348-.857,1.186,1.186,0,0,0-.348-.859,1.234,1.234,0,0,0-.861-.338,1.231,1.231,0,0,0-.868.316,1.2,1.2,0,0,0-.348.93Zm-4.353,4.152a1.176,1.176,0,0,0,.368.911,1.377,1.377,0,0,0,.908.307,1.28,1.28,0,0,0,1.01-.419,1.493,1.493,0,0,0,.37-1.064,1.541,1.541,0,0,0-.372-1.078,1.267,1.267,0,0,0-1.015-.42,1.373,1.373,0,0,0-.9.3,1.16,1.16,0,0,0-.369.879Zm-2.49-4.152H56.465v-.509a1.2,1.2,0,0,0-.522-.93,1.244,1.244,0,0,0-.861-.316,1.18,1.18,0,0,0-.868.338,1.186,1.186,0,0,0-.348.859,1.181,1.181,0,0,0,.348.857,1.217,1.217,0,0,0,.861.339,1.224,1.224,0,0,0,.868-.338,1.2,1.2,0,0,0,.349-.861v-.081h1.364v.082a1.225,1.225,0,0,0,.348.861,1.244,1.244,0,0,0,.868.338,1.219,1.219,0,0,0,.861-.339,1.193,1.193,0,0,0,.348-.857,1.186,1.186,0,0,0-.348-.859,1.234,1.234,0,0,0-.861-.338,1.231,1.231,0,0,0-.868.316,1.2,1.2,0,0,0-.348.93Zm-2.49,4.152a1.175,1.175,0,0,0,.368.911,1.377,1.377,0,0,0,.908.307,1.279,1.279,0,0,0,1.011-.419,1.494,1.494,0,0,0,.369-1.064,1.54,1.54,0,0,0-.372-1.078,1.267,1.267,0,0,0-1.015-.42,1.373,1.373,0,0,0-.9.3,1.16,1.16,0,0,0-.369.879Zm-2.489-4.152H51.973v-.509a1.2,1.2,0,0,0-.522-.93,1.244,1.244,0,0,0-.861-.316,1.18,1.18,0,0,0-.868.338,1.186,1.186,0,0,0-.348.859,1.182,1.182,0,0,0,.348.857,1.217,1.217,0,0,0,.861.339,1.224,1.224,0,0,0,.868-.338,1.2,1.2,0,0,0,.349-.861v-.081h1.364v.082a1.225,1.225,0,0,0,.348.861,1.244,1.244,0,0,0,.868.338,1.219,1.219,0,0,0,.861-.339,1.193,1.193,0,0,0,.348-.857,1.186,1.186,0,0,0-.348-.859,1.234,1.234,0,0,0-.861-.338,1.232,1.232,0,0,0-.868.316,1.2,1.2,0,0,0-.348.93Zm-6.2,4.4a1.175,1.175,0,0,0,.368.911,1.377,1.377,0,0,0,.908.307,1.28,1.28,0,0,0,1.01-.419,1.493,1.493,0,0,0,.37-1.064,1.541,1.541,0,0,0-.372-1.078,1.267,1.267,0,0,0-1.015-.42,1.373,1.373,0,0,0-.9.3,1.16,1.16,0,0,0-.369.879Zm-2.489-4.152H43.485v-.509a1.2,1.2,0,0,0-.522-.93,1.243,1.243,0,0,0-.861-.316,1.18,1.18,0,0,0-.868.338,1.186,1.186,0,0,0-.348.859,1.182,1.182,0,0,0,.348.857,1.217,1.217,0,0,0,.861.339,1.223,1.223,0,0,0,.868-.338,1.2,1.2,0,0,0,.349-.861v-.081h1.364v.082a1.225,1.225,0,0,0,.348.861,1.244,1.244,0,0,0,.868.338,1.219,1.219,0,0,0,.861-.339,1.193,1.193,0,0,0,.348-.857,1.186,1.186,0,0,0-.348-.859,1.234,1.234,0,0,0-.861-.338,1.231,1.231,0,0,0-.868.316,1.2,1.2,0,0,0-.348.93Zm-2.489,4.152a1.176,1.176,0,0,0,.367.911,1.376,1.376,0,0,0,.908.307,1.279,1.279,0,0,0,1.011-.419,1.494,1.494,0,0,0,.369-1.064,1.54,1.54,0,0,0-.372-1.078,1.267,1.267,0,0,0-1.016-.42,1.373,1.373,0,0,0-.9.3,1.16,1.16,0,0,0-.368.879Zm-2.489-4.152H38v-.509a1.2,1.2,0,0,0-.522-.93,1.244,1.244,0,0,0-.861-.316,1.18,1.18,0,0,0-.868.338,1.186,1.186,0,0,0-.348.859,1.182,1.182,0,0,0,.348.857,1.217,1.217,0,0,0,.861.339,1.224,1.224,0,0,0,.868-.338,1.2,1.2,0,0,0,.349-.861v-.081h1.364v.082a1.225,1.225,0,0,0,.348.861,1.244,1.244,0,0,0,.868.338,1.219,1.219,0,0,0,.861-.339,1.193,1.193,0,0,0,.348-.857,1.186,1.186,0,0,0-.348-.859,1.234,1.234,0,0,0-.861-.338,1.231,1.231,0,0,0-.868.316,1.2,1.2,0,0,0-.348.93Zm-6.2,4.4a1.176,1.176,0,0,0,.368.911,1.377,1.377,0,0,0,.908.307,1.28,1.28,0,0,0,1.01-.419,1.493,1.493,0,0,0,.37-1.064,1.541,1.541,0,0,0-.372-1.078,1.267,1.267,0,0,0-1.015-.42,1.373,1.373,0,0,0-.9.3,1.16,1.16,0,0,0-.369.879Zm-2.489-4.152H28.016v-.509a1.2,1.2,0,0,0-.522-.93,1.243,1.243,0,0,0-.861-.316,1.18,1.18,0,0,0-.868.338,1.186,1.186,0,0,0-.348.859,1.182,1.182,0,0,0,.348.857,1.217,1.217,0,0,0,.861.339,1.223,1.223,0,0,0,.868-.338,1.2,1.2,0,0,0,.349-.861v-.081h1.364v.082a1.225,1.225,0,0,0,.348.861,1.244,1.244,0,0,0,.868.338,1.219,1.219,0,0,0,.861-.339,1.193,1.193,0,0,0,.348-.857,1.186,1.186,0,0,0-.348-.859,1.234,1.234,0,0,0-.861-.338,1.231,1.231,0,0,0-.868.316,1.2,1.2,0,0,0-.348.93Zm-2.489,4.152a1.176,1.176,0,0,0,.367.911,1.376,1.376,0,0,0,.908.307,1.279,1.279,0,0,0,1.011-.419,1.494,1.494,0,0,0,.369-1.064,1.54,1.54,0,0,0-.372-1.078,1.267,1.267,0,0,0-1.016-.42,1.373,1.373,0,0,0-.9.3,1.16,1.16,0,0,0-.368.879Zm-2.489-4.152H22.527v-.509a1.2,1.2,0,0,0-.522-.93,1.244,1.244,0,0,0-.861-.316,1.18,1.18,0,0,0-.868.338,1.186,1.186,0,0,0-.348.859,1.182,1.182,0,0,0,.348.857,1.217,1.217,0,0,0,.861.339,1.223,1.223,0,0,0,.868-.338,1.2,1.2,0,0,0,.349-.861v-.081h1.364v.082a1.225,1.225,0,0,0,.348.861,1.244,1.244,0,0,0,.868.338,1.219,1.219,0,0,0,.861-.339,1.193,1.193,0,0,0,.348-.857,1.186,1.186,0,0,0-.348-.859,1.234,1.234,0,0,0-.861-.338,1.231,1.231,0,0,0-.868.316,1.2,1.2,0,0,0-.348.93Zm-4.353,4.152a1.176,1.176,0,0,0,.368.911,1.377,1.377,0,0,0,.908.307,1.28,1.28,0,0,0,1.01-.419,1.493,1.493,0,0,0,.37-1.064,1.541,1.541,0,0,0-.372-1.078,1.267,1.267,0,0,0-1.015-.42,1.373,1.373,0,0,0-.9.3,1.16,1.16,0,0,0-.369.879Zm-2.489-4.152H16.038v-.509a1.2,1.2,0,0,0-.522-.93,1.243,1.243,0,0,0-.861-.316,1.18,1.18,0,0,0-.868.338,1.186,1.186,0,0,0-.348.859,1.182,1.182,0,0,0,.348.857,1.217,1.217,0,0,0,.861.339,1.223,1.223,0,0,0,.868-.338,1.2,1.2,0,0,0,.349-.861v-.081h1.364v.082a1.225,1.225,0,0,0,.348.861,1.244,1.244,0,0,0,.868.338,1.219,1.219,0,0,0,.861-.339,1.193,1.193,0,0,0,.348-.857,1.186,1.186,0,0,0-.348-.859,1.234,1.234,0,0,0-.861-.338,1.231,1.231,0,0,0-.868.316,1.2,1.2,0,0,0-.348.93Zm-2.489,4.152a1.176,1.176,0,0,0,.367.911,1.376,1.376,0,0,0,.908.307,1.279,1.279,0,0,0,1.011-.419,1.494,1.494,0,0,0,.369-1.064,1.54,1.54,0,0,0-.372-1.078,1.267,1.267,0,0,0-1.016-.42,1.373,1.373,0,0,0-.9.3,1.16,1.16,0,0,0-.368.879Zm-2.489-4.152H11.551v-.509a1.2,1.2,0,0,0-.522-.93,1.244,1.244,0,0,0-.861-.316,1.18,1.18,0,0,0-.868.338,1.186,1.186,0,0,0-.348.859,1.182,1.182,0,0,0,.348.857,1.217,1.217,0,0,0,.861.339,1.223,1.223,0,0,0,.868-.338,1.2,1.2,0,0,0,.349-.861v-.081h1.364v.082a1.225,1.225,0,0,0,.348.861,1.244,1.244,0,0,0,.868.338,1.219,1.219,0,0,0,.861-.339,1.193,1.193,0,0,0,.348-.857,1.186,1.186,0,0,0-.348-.859,1.234,1.234,0,0,0-.861-.338,1.231,1.231,0,0,0-.868.316,1.2,1.2,0,0,0-.348.93Zm-6.2,4.4a1.176,1.176,0,0,0,.368.911,1.377,1.377,0,0,0,.908.307,1.28,1.28,0,0,0,1.01-.419,1.493,1.493,0,0,0,.37-1.064,1.541,1.541,0,0,0-.372-1.078,1.267,1.267,0,0,0-1.015-.42,1.373,1.373,0,0,0-.9.3,1.16,1.16,0,0,0-.369.879Zm-2.489-4.152H5.063v-.509a1.2,1.2,0,0,0-.522-.93,1.243,1.243,0,0,0-.861-.316,1.18,1.18,0,0,0-.868.338,1.186,1.186,0,0,0-.348.859,1.182,1.182,0,0,0,.348.857,1.217,1.217,0,0,0,.861.339,1.223,1.223,0,0,0,.868-.338,1.2,1.2,0,0,0,.349-.861v-.081h1.364v.082a1.225,1.225,0,0,0,.348.861,1.244,1.244,0,0,0,.868.338,1.219,1.219,0,0,0,.861-.339,1.193,1.193,0,0,0,.348-.857,1.186,1.186,0,0,0-.348-.859,1.234,1.234,0,0,0-.861-.338,1.231,1.231,0,0,0-.868.316,1.2,1.2,0,0,0-.348.93Zm-2.489,4.152a1.176,1.176,0,0,0,.367.911,1.376,1.376,0,0,0,.908.307,1.279,1.279,0,0,0,1.011-.419,1.494,1.494,0,0,0,.369-1.064,1.54,1.54,0,0,0-.372-1.078,1.267,1.267,0,0,0-1.016-.42,1.373,1.373,0,0,0-.9.3,1.16,1.16,0,0,0-.368.879Zm-2.489-4.152H.574v-.509a1.2,1.2,0,0,0-.522-.93,1.244,1.244,0,0,0-.861-.316,1.18,1.18,0,0,0-.868.338,1.186,1.186,0,0,0-.348.859,1.182,1.182,0,0,0,.348.857,1.217,1.217,0,0,0,.861.339,1.223,1.223,0,0,0,.868-.338,1.2,1.2,0,0,0,.349-.861v-.081h1.364v.082a1.225,1.225,0,0,0,.348.861,1.244,1.244,0,0,0,.868.338,1.219,1.219,0,0,0,.861-.339,1.193,1.193,0,0,0,.348-.857,1.186,1.186,0,0,0-.348-.859,1.234,1.234,0,0,0-.861-.338,1.231,1.231,0,0,0-.868.316,1.2,1.2,0,0,0-.348.93Z" transform="translate(-0.001 -8.244)"/></svg>